<svg width="13" height="12" viewBox="0 0 13 12" fill="none" xmlns="http://www.w3.org/2000/svg">
<path d="M11.6292 4.12369L8.18426 3.60112L6.64755 0.336198C6.54693 0.129629 6.34564 0 6.125 0C5.90436 0 5.70307 0.129629 5.60245 0.336198L4.06574 3.60112L0.620763 4.12369C0.403976 4.1561 0.222061 4.31812 0.152391 4.53687C0.0865953 4.75966 0.140767 4.99864 0.29948 5.16068L2.79226 7.70052L2.2039 11.2895C2.1652 11.5163 2.25422 11.7472 2.43614 11.885C2.6142 12.0186 2.85031 12.0389 3.04773 11.9295L6.125 10.2363L9.20228 11.9295C9.28742 11.9781 9.38032 11.9984 9.47323 11.9984C9.59323 11.9984 9.71322 11.9619 9.81386 11.885C9.99578 11.7472 10.0848 11.5163 10.0461 11.2895L9.45774 7.70052L11.9505 5.16068C12.1092 4.99864 12.1634 4.75966 12.0976 4.53687C12.0279 4.31812 11.846 4.1561 11.6292 4.12369Z" fill="#ECD041"/>
</svg>
